<svg xmlns="http://www.w3.org/2000/svg" width="1280" height="800">
<rect x="0" y="0" width="1280" height="64" fill="#F4F6F8"/>
<text x="24" y="40" font-size="24" font-family="Inter, Arial" fill="#111">Màn hình 2: Lâm sàng & Phân tầng nguy cơ</text>
<rect x="40" y="96" width="740" height="360" rx="12" ry="12" fill="none" stroke="#888" stroke-dasharray="6,4"/>
<text x="52" y="124" font-size="16" font-family="Inter, Arial" fill="#333">Checklist 11 mục (checkbox)</text>
<rect x="800" y="96" width="380" height="160" rx="12" ry="12" fill="none" stroke="#888" stroke-dasharray="6,4"/>
<text x="812" y="124" font-size="16" font-family="Inter, Arial" fill="#333">Vị trí khối (R/Supra/L/None)</text>
<rect x="800" y="276" width="380" height="180" rx="12" ry="12" fill="none" stroke="#888" stroke-dasharray="6,4"/>
<text x="812" y="304" font-size="16" font-family="Inter, Arial" fill="#333">Tổng điểm & Nhóm màu</text>
<rect x="40" y="476" width="300" height="64" rx="12" ry="12" fill="none" stroke="#888" stroke-dasharray="6,4"/>
<text x="52" y="504" font-size="16" font-family="Inter, Arial" fill="#333">[Quay lại]</text>
<rect x="880" y="476" width="300" height="64" rx="12" ry="12" fill="none" stroke="#888" stroke-dasharray="6,4"/>
<text x="892" y="504" font-size="16" font-family="Inter, Arial" fill="#333">[Tính điểm]</text>
<rect x="40" y="560" width="1140" height="120" rx="12" ry="12" fill="none" stroke="#888" stroke-dasharray="6,4"/>
<text x="52" y="588" font-size="16" font-family="Inter, Arial" fill="#333">Khuyến nghị LPM & giới hạn áp lực</text>
<rect x="40" y="700" width="1140" height="64" rx="12" ry="12" fill="none" stroke="#888" stroke-dasharray="6,4"/>
<text x="52" y="728" font-size="16" font-family="Inter, Arial" fill="#333">[Khởi động (chưa bơm)]</text>
<text x="24" y="780" font-size="14" font-family="Inter, Arial" fill="#666">Grid: 12-col / 80px gutter; Tap targets ≥40px; Primary breakpoint 1280×800</text>
</svg>